<svg id="Layer_1" data-name="Layer 1" xmlns="http://www.w3.org/2000/svg" viewBox="0 0 547.16 547.16" width="37px" height="22px" style="background-color:#fff" stroke-width="0"><defs><style>.cls-3{fill:#231f20}</style></defs><path d="M691.5 518.81a44 44 0 0 1-44 44H207.05a44 44 0 0 1-44.05-44V78.38a44 44 0 0 1 44.05-44h440.42a44 44 0 0 1 44 44z" transform="translate(-153.68 -25.01)" fill="#edaa00" fill-rule="evenodd"/><path d="M647.47 34.34a44 44 0 0 1 44 44v440.47a44 44 0 0 1-44 44H207a44 44 0 0 1-44-44V78.38a44 44 0 0 1 44-44h440.47m0-9.33H207a53.42 53.42 0 0 0-53.36 53.37v440.39A53.42 53.42 0 0 0 207 572.17h440.47a53.42 53.42 0 0 0 53.36-53.36V78.38A53.41 53.41 0 0 0 647.47 25" transform="translate(-153.68 -25.01)" fill="#fff"/><path class="cls-3" d="M458.09 304.3v-94.63l24.71-5.85v12.39s6.39-16.31 21.23-20.1c4.57-1.15 6.87-.46 6.87-.46v24.14a34.63 34.63 0 0 0-12.94 2.7C488.8 226.1 484.2 234 484.2 246v52.25zM327.88 335.07s-4-6-4-27.32v-47.11l-12.72 3v-19.39l12.73-3v-21.16l26.27-6.2V235l18.56-4.4V250l-18.56 4.41v48c0 21.81 5.79 26 5.79 26zM371.46 278.78c0-16.83 2.4-29.1 7.54-38.52 6.11-11.18 16.16-18.46 30.78-21.79 28.81-6.55 39.2 10.51 38.79 33.37-.13 8.17-.1 12.16-.1 12.16l-50.76 11.93v.82c0 16 3.36 23.57 13.48 21.41 8.74-1.84 11.17-7.32 11.86-14.08.12-1.11.16-3.88.16-3.88l23.79-5.7s.06 1.95 0 4.12c-.22 9.09-2.86 31.63-35.91 39.43-31.3 7.43-39.66-11.69-39.66-39.27m39.37-42.69c-8.41 1.91-12.82 10.16-13 23.83l25.54-6.08c.05-.62.05-2 .05-4.12-.05-10.31-3.24-15.75-12.58-13.63M599.76 223.44c-1-28.82 6.48-51.7 38.63-59 20.52-4.66 28.29.66 32.23 5.81 3.79 4.92 5.25 11.55 5.25 20.84v1.72l-25.18 6v-3.51c0-11-3-15.2-11-13.2-9.51 2.39-13.35 11.41-13.35 29.37v8.37c0 18.25 2.5 26.61 13.45 24.31 9.52-2 10.82-10.32 11-17.64 0-1.15.07-4.83.07-4.83l25.14-5.92v3.91c-.07 23.92-12.68 39-36.32 44.5-32.53 7.64-38.91-11.19-39.91-40.73M512.79 263.78c0-21.92 12.86-28.85 32.19-36.84 17.37-7.19 17.74-10.76 17.82-17 .09-5.25-2.34-9.76-11-7.55-7.95 2-10.06 7.78-10.48 12.38a42.49 42.49 0 0 0-.16 4.86l-24.37 5.75a48.54 48.54 0 0 1 1.68-14.4c3.9-13.11 15.47-21.93 35.41-26.54 25.92-6 34.57 5.4 34.61 23.1v41.91c0 20.27 3.76 23.23 3.76 23.23l-23.93 5.67a52.44 52.44 0 0 1-3.22-8.6s-5.23 13.19-23.29 17.45c-19 4.46-29-7.28-29-23.41m49.85-29.93a89.93 89.93 0 0 1-12.74 7.45c-8 3.91-11.59 8.71-11.59 16.11 0 6.41 4 10.63 11.2 8.83 7.75-1.94 13.13-9.17 13.13-19.2zM190.56 401.4a15.19 15.19 0 0 1-12.71-23.46l.16-.21.29-.07 35.7-8.43v27.13l-.56.13c-8.1 1.95-17.78 4.16-19.78 4.57a14.07 14.07 0 0 1-3.12.34M190.56 436.11A15.16 15.16 0 0 1 175.4 421a14.81 14.81 0 0 1 2.45-8.24l.16-.27.29-.06L214 404v27.13l-.56.15c-8.1 1.94-17.78 4.19-19.78 4.58a16.1 16.1 0 0 1-3.12.3M190.56 470.88a15.17 15.17 0 0 1-15.16-15.17 14.81 14.81 0 0 1 2.45-8.24l.16-.28 36-8.48v27.13l-.56.14c-8.55 2.06-18.06 4.21-19.78 4.6a16.92 16.92 0 0 1-3.12.3" transform="translate(-153.68 -25.01)"/><path class="cls-3" d="M32.68 343.14l-.01-151.79 27.67-6.54v151.78l-27.66 6.55z"/><path class="cls-3" d="M255.29 355.24a17.08 17.08 0 0 0-34.15 0v141.88a46.31 46.31 0 0 0 46.22 46.23c12.92 0 48.32-.06 48.32-.06V484.1v-66a22.33 22.33 0 0 0-9.93-18.61l-43.08-29.26v66.44a3.67 3.67 0 1 1-7.33 0c0-.71-.09-72.66-.09-81.43M278.35 249.39a37.34 37.34 0 0 0-24.64 19v-10.63l-24.91 5.9v68.13a25.5 25.5 0 0 1 26.22 4.59v-44c0-10.53 5.26-18.95 12.74-20.6 5.65-1.24 10.35.78 10.35 10.81v64.19l26.23-6.16v-67.89c0-16.47-6.32-28-26-23.34M659.7 152.24A16.23 16.23 0 1 1 675.92 136a16.24 16.24 0 0 1-16.22 16.21m0-30.41a14.19 14.19 0 1 0 14.19 14.2 14.22 14.22 0 0 0-14.19-14.2" transform="translate(-153.68 -25.01)"/><path class="cls-3" d="M653.79 126.35h7c2.79 0 5 1.39 5 5.08 0 2.57-1.14 4.55-3.3 4.89 2 .2 3 1.28 3.09 4.07 0 1.25.06 2.81.12 4a2 2 0 0 0 .94 1.7h-3.56a3 3 0 0 1-.54-1.75c-.12-1.19-.1-2.3-.14-3.74 0-2.16-.71-3.11-2.89-3.11H657v8.6h-3.17zm5.69 8.82a2.91 2.91 0 0 0 3.16-3.22c0-2.11-.9-3.21-3-3.21H657v6.43z" transform="translate(-153.68 -25.01)"/></svg>