<svg width="38" height="24" viewBox="0 0 38 24" fill="none" xmlns="http://www.w3.org/2000/svg">
<g clip-path="url(#clip0_1476_47388)">
<path d="M35 0H3C1.3 0 0 1.3 0 3V21C0 22.7 1.4 24 3 24H35C36.7 24 38 22.7 38 21V3C38 1.3 36.6 0 35 0Z" fill="#5A31F4" style="fill:#5A31F4;fill:color(display-p3 0.3529 0.1922 0.9569);fill-opacity:1;"/>
<path d="M35 1C36.1 1 37 1.9 37 3V21C37 22.1 36.1 23 35 23H3C1.9 23 1 22.1 1 21V3C1 1.9 1.9 1 3 1H35Z" fill="#5A31F4" style="fill:#5A31F4;fill:color(display-p3 0.3529 0.1922 0.9569);fill-opacity:1;"/>
<g clip-path="url(#clip1_1476_47388)">
<path d="M9.8585 11.3982C8.89399 11.1861 8.4643 11.1031 8.4643 10.7264C8.4643 10.3721 8.75508 10.1956 9.33665 10.1956C9.84812 10.1956 10.222 10.4222 10.4972 10.8661C10.518 10.9003 10.5608 10.9122 10.5958 10.8937L11.6811 10.3379C11.72 10.3181 11.7343 10.2681 11.7122 10.2299C11.2618 9.43823 10.4297 9.00488 9.33405 9.00488C7.89442 9.00488 7 9.72406 7 10.8674C7 12.0818 8.08914 12.3887 9.05495 12.6008C10.0208 12.8128 10.4518 12.8958 10.4518 13.2725C10.4518 13.6492 10.1376 13.8271 9.5106 13.8271C8.93163 13.8271 8.50195 13.5584 8.24232 13.0368C8.22285 12.9986 8.17741 12.9828 8.13977 13.0025L7.05712 13.5465C7.01947 13.5663 7.00389 13.6124 7.02337 13.6519C7.45305 14.5278 8.33449 15.0204 9.5119 15.0204C11.0113 15.0204 11.9174 14.3131 11.9174 13.1342C11.9174 11.9554 10.823 11.6129 9.8585 11.4008V11.3982Z" fill="white" style="fill:white;fill:white;fill-opacity:1;"/>
<path d="M15.6728 9.00474C15.0575 9.00474 14.5136 9.22603 14.1228 9.61986C14.0982 9.64357 14.0579 9.62645 14.0579 9.5922V7.07771C14.0579 7.03425 14.0242 7 13.9813 7H12.6235C12.5806 7 12.5469 7.03425 12.5469 7.07771V14.882C12.5469 14.9254 12.5806 14.9597 12.6235 14.9597H13.9813C14.0242 14.9597 14.0579 14.9254 14.0579 14.882V11.4586C14.0579 10.7974 14.5577 10.2903 15.2314 10.2903C15.9052 10.2903 16.3933 10.7869 16.3933 11.4586V14.882C16.3933 14.9254 16.427 14.9597 16.4699 14.9597H17.8277C17.8705 14.9597 17.9043 14.9254 17.9043 14.882V11.4586C17.9043 10.0203 16.9748 9.00474 15.6728 9.00474Z" fill="white" style="fill:white;fill:white;fill-opacity:1;"/>
<path d="M20.6615 8.78125C19.9241 8.78125 19.2335 9.01044 18.7376 9.34105C18.7039 9.36344 18.6922 9.40954 18.713 9.44511L19.3114 10.4817C19.3335 10.5186 19.3802 10.5318 19.4166 10.5094C19.793 10.2789 20.224 10.159 20.6641 10.1617C21.8493 10.1617 22.7203 11.0099 22.7203 12.1308C22.7203 13.0858 22.0232 13.7931 21.1392 13.7931C20.4187 13.7931 19.9189 13.3677 19.9189 12.767C19.9189 12.4232 20.063 12.1414 20.4382 11.9425C20.4771 11.9214 20.4914 11.8727 20.468 11.8345L19.9034 10.865C19.8852 10.8334 19.8462 10.8189 19.8112 10.8321C19.0544 11.1166 18.5234 11.8015 18.5234 12.7209C18.5234 14.1119 19.6152 15.1498 21.1379 15.1498C22.9163 15.1498 24.195 13.8998 24.195 12.1071C24.195 10.1854 22.7073 8.78125 20.6615 8.78125Z" fill="white" style="fill:white;fill:white;fill-opacity:1;"/>
<path d="M28.1645 8.99316C27.4778 8.99316 26.8637 9.25133 26.4159 9.70444C26.3912 9.72947 26.351 9.71102 26.351 9.67678V9.13147C26.351 9.088 26.3172 9.05375 26.2744 9.05375H24.9516C24.9088 9.05375 24.875 9.088 24.875 9.13147V16.9239C24.875 16.9673 24.9088 17.0016 24.9516 17.0016H26.3094C26.3523 17.0016 26.386 16.9673 26.386 16.9239V14.3686C26.386 14.3343 26.4263 14.3172 26.4509 14.3396C26.8975 14.7611 27.4882 15.0074 28.1645 15.0074C29.7573 15.0074 30.9996 13.6994 30.9996 12.0003C30.9996 10.3011 29.756 8.99316 28.1645 8.99316ZM27.9075 13.6876C27.0014 13.6876 26.3146 12.9565 26.3146 11.9897C26.3146 11.0229 27.0001 10.2919 27.9075 10.2919C28.8149 10.2919 29.499 11.0111 29.499 11.9897C29.499 12.9684 28.8239 13.6876 27.9062 13.6876H27.9075Z" fill="white" style="fill:white;fill:white;fill-opacity:1;"/>
</g>
</g>
<defs>
<clipPath id="clip0_1476_47388">
<rect width="38" height="24" fill="white" style="fill:white;fill:white;fill-opacity:1;"/>
</clipPath>
<clipPath id="clip1_1476_47388">
<rect width="24" height="10" fill="white" style="fill:white;fill:white;fill-opacity:1;" transform="translate(7 7)"/>
</clipPath>
</defs>
</svg>
