<svg xmlns="http://www.w3.org/2000/svg" width="1800" height="1200" viewBox="0 0 1800 1200">
<defs><linearGradient id="sky" x2="0" y2="1"><stop stop-color="#e8ddc7"/><stop offset="1" stop-color="#f7ecd7"/></linearGradient><filter id="grain"><feTurbulence type="fractalNoise" baseFrequency=".8" numOctaves="3" stitchTiles="stitch"/><feColorMatrix type="saturate" values="0"/><feComponentTransfer><feFuncA type="linear" slope=".12"/></feComponentTransfer><feBlend in="SourceGraphic" mode="multiply"/></filter></defs>
<g filter="url(#grain)"><path fill="url(#sky)" d="M0 0h1800v1200H0z"/><circle cx="1260" cy="340" r="172" fill="#ba663e"/><path d="M0 630Q350 400 850 610T1800 520V1200H0" fill="#809183"/><path d="M0 750Q440 450 1000 770T1800 660V1200H0" fill="#526b65"/><path d="M0 960Q350 630 760 865T1800 760V1200H0" fill="#d2b58e"/><path d="M0 1190Q470 765 960 995T1800 900V1200H0" fill="#c08557"/><path d="M0 1310Q440 1010 900 1130T1800 1040V1200H0" fill="#e3caa4"/></g></svg>
